<svg clip-rule="evenodd" fill-rule="evenodd" stroke-linejoin="round" stroke-miterlimit="2" viewBox="0 0 32 32" xmlns="http://www.w3.org/2000/svg"><g transform="translate(-48 -96)"><path d="m59 126c.796 0 1.559-.316 2.121-.879.563-.562.879-1.325.879-2.121 0-1.488 0-3.512 0-5 0-.552.448-1 1-1h2c.552 0 1 .448 1 1v5c0 .796.316 1.559.879 2.121.562.563 1.325.879 2.121.879h5.114c1.589 0 2.902-1.238 2.995-2.824l.831-14.119c.055-.943-.337-1.856-1.057-2.466l-10.945-9.261c-1.119-.947-2.757-.947-3.876 0l-10.945 9.261c-.72.61-1.112 1.523-1.057 2.466l.831 14.119c.093 1.586 1.406 2.824 2.995 2.824z"/></g></svg>