<svg id="OBJECT" viewBox="0 0 32 32" xmlns="http://www.w3.org/2000/svg"><path d="m28 3h-4v-1c0-.55-.45-1-1-1h-14c-.55 0-1 .45-1 1v1h-4c-1.65 0-3 1.35-3 3v4c0 2.76 2.24 5 5 5h2v.39c0 .59.17 1.17.5 1.66l1.07 1.61c.56.84 1.49 1.34 2.5 1.34h.78l-.71 5h-.13c-1.65 0-3 1.35-3 3v1h-1c-.55 0-1 .45-1 1s.45 1 1 1h16c.55 0 1-.45 1-1s-.45-1-1-1h-1v-1c0-1.65-1.35-3-3-3h-.13l-.71-5h.78c1 0 1.94-.5 2.5-1.34l1.07-1.61c.33-.49.5-1.07.5-1.66v-.39h2c2.76 0 5-2.24 5-5v-4c0-1.65-1.35-3-3-3zm-22 10c-1.65 0-3-1.35-3-3v-4c0-.55.45-1 1-1h4v8zm15 15v1h-10v-1c0-.55.45-1 1-1h8c.55 0 1 .45 1 1zm-3.15-3h-3.69l.71-5h2.26l.71 5zm4.15-9.61c0 .2-.06.39-.17.55l-1.07 1.61c-.19.28-.5.45-.83.45h-7.86c-.33 0-.65-.17-.83-.45l-1.07-1.61c-.11-.17-.17-.36-.17-.55v-12.39h12zm7-5.39c0 1.65-1.35 3-3 3h-2v-8h4c.55 0 1 .45 1 1z"/><path d="m14 13c-.55 0-1 .45-1 1s.45 1 1 1h4c.55 0 1-.45 1-1s-.45-1-1-1h-1v-7c0-.35-.18-.67-.47-.85-.3-.18-.66-.2-.97-.04l-2 1c-.49.25-.69.85-.45 1.34s.85.69 1.34.45l.55-.28v5.38z"/></svg>